<?xml version="1.0" encoding="UTF-8"?>
<svg width="23px" height="30px" viewBox="0 0 23 30" version="1.1" xmlns="http://www.w3.org/2000/svg" xmlns:xlink="http://www.w3.org/1999/xlink">
    <!-- Generator: Sketch 49 (51002) - http://www.bohemiancoding.com/sketch -->
    <title>Fill 1</title>
    <desc>Created with Sketch.</desc>
    <defs></defs>
    <g id="Page-8" stroke="none" stroke-width="1" fill="none" fill-rule="evenodd">
        <g id="切图" transform="translate(-468.000000, -375.000000)" fill="#FFFFFF">
            <g id="锁定" transform="translate(468.000000, 375.000000)">
                <path d="M21.1435308,12.273159 L19.0151786,12.273159 L19.0151786,7.40009593 C19.0151786,3.31881271 15.6461532,0 11.5009989,0 C7.35569927,0 3.98282362,3.31881271 3.98282362,7.40009593 L3.98282362,12.273159 L1.85632388,12.273159 C0.831050466,12.273159 0,13.0913171 0,14.100915 L0,27.4432555 C0,28.4545334 0.831050466,29.2727273 1.85632388,29.2727273 L21.1453833,29.2727273 C22.1709473,29.2727273 23,28.4545334 23,27.4432555 L23,14.100915 C22.9998547,13.0911742 22.1692401,12.273159 21.1435308,12.273159 Z M12.5434534,21.1196685 L12.5434534,24.0331551 C12.5434534,24.1634385 12.4340464,24.2730266 12.2996849,24.2730266 L10.7040201,24.2730266 C10.5680604,24.2730266 10.4585444,24.1632955 10.4585444,24.0331551 L10.4585444,21.1196685 C9.70878639,20.7422935 9.18946612,19.9855418 9.18946612,19.0985426 C9.18946612,17.8436044 10.2244016,16.8228547 11.4991464,16.8228547 C12.7757436,16.8228547 13.8108245,17.8436044 13.8108245,19.0985426 C13.8125317,19.9855418 13.2932114,20.7422935 12.5434534,21.1196685 Z M16.1315472,12.273159 L6.87030536,12.273159 L6.87030536,7.52072869 C6.87030536,5.0069922 8.94954793,2.95984536 11.5027061,2.95984536 C14.0560096,2.95984536 16.1314382,5.0069922 16.1314382,7.52072869 L16.1315472,12.273159 Z" id="Fill-1"></path>
            </g>
        </g>
    </g>
</svg>