<svg width="478" height="479" xmlns="http://www.w3.org/2000/svg"><g fill="none" fill-rule="evenodd"><g opacity=".439"><path d="M231.679 44v15.238" stroke="#231815" stroke-width="1.8"/><path d="M242.079 45.448l-.649 12.363M252.462 46.01l-1.294 12.314M262.802 47.117l-1.937 12.228M273.07 48.762l-2.574 12.11M283.238 50.943l-3.204 11.959" stroke="#898989"/><path d="M293.72 52.294l-4.71 14.492" stroke="#231815" stroke-width="1.8"/><path d="M303.162 56.884l-4.437 11.559M312.864 60.628l-5.036 11.31M322.356 64.875l-5.62 11.032M331.614 69.613l-6.191 10.722" stroke="#898989"/><path d="M341.388 73.63l-8.3 12.78" stroke="#231815" stroke-width="1.8"/><path d="M349.321 80.508l-7.278 10.017M357.722 86.636l-7.791 9.622" stroke="#898989"/><path d="M366.748 92.134l-10.196 11.324" stroke="#231815" stroke-width="1.8"/><path d="M373.508 100.168l-8.754 8.754M380.847 107.534l-9.2 8.285M387.792 115.275l-9.623 7.791" stroke="#898989"/><path d="M394.322 123.368l-10.017 7.278" stroke="#9FA0A0"/><path d="M401.616 131.014l-12.779 8.3" stroke="#231815" stroke-width="1.8"/><path d="M406.067 140.524l-10.723 6.19M411.25 149.54l-11.032 5.62M415.954 158.814l-11.31 5.035M420.166 168.321l-11.559 4.438" stroke="#898989"/><path d="M425.234 177.595l-14.492 4.709" stroke="#231815" stroke-width="1.8"/><path d="M427.071 187.933l-11.96 3.203M429.744 197.982l-12.11 2.574M431.888 208.158l-12.229 1.937M433.496 218.432l-12.313 1.294" stroke="#898989"/><path d="M438.505 229.498h-17.732" stroke="#231815" stroke-width="1.8"/><path d="M435.09 239.162h-12.382M435.07 249.561l-12.363-.648M434.507 259.944l-12.313-1.293M433.401 270.285l-12.229-1.937" stroke="#898989"/><path d="M433.154 280.85l-14.905-3.168" stroke="#231815" stroke-width="1.8"/><path d="M429.576 290.721l-11.96-3.205M426.866 300.761l-11.775-3.827M423.634 310.645l-11.559-4.437M419.89 320.346l-11.31-5.035" stroke="#898989"/><path d="M416.916 330.488l-13.577-6.919" stroke="#231815" stroke-width="1.8"/><path d="M410.905 339.096l-10.722-6.19M405.689 348.093l-10.383-6.744M400.01 356.804l-10.017-7.278M393.882 365.205l-9.622-7.792" stroke="#898989"/><path d="M388.384 374.231l-11.324-10.196" stroke="#231815" stroke-width="1.8"/><path d="M380.35 380.99l-8.754-8.754M372.984 388.33l-8.284-9.2M365.244 395.275l-7.793-9.623M357.15 401.804l-7.278-10.017" stroke="#898989"/><path d="M349.503 409.099l-8.299-12.78" stroke="#231815" stroke-width="1.8"/><path d="M339.994 413.55l-6.19-10.724M330.978 418.733l-5.62-11.032M321.705 423.437l-5.037-11.31M312.197 427.649l-4.437-11.559" stroke="#898989"/><path d="M302.923 432.717l-4.709-14.492" stroke="#231815" stroke-width="1.8"/><path d="M292.585 434.554l-3.203-11.96M282.536 437.227l-2.574-12.11M272.36 439.37l-1.937-12.228M262.086 440.979l-1.293-12.314" stroke="#898989"/><path d="M251.817 443.473l-.798-15.217" stroke="#231815" stroke-width="1.8"/><path d="M241.357 442.572V430.19M230.957 442.553l.648-12.364M220.574 441.99l1.294-12.314M210.233 440.884l1.937-12.229" stroke="#898989"/><path d="M199.668 440.636l3.169-14.904" stroke="#231815" stroke-width="1.8"/><path d="M189.798 437.058l3.203-11.96M179.758 434.348l3.825-11.774M169.873 431.117l4.437-11.559M160.172 427.373l5.036-11.31" stroke="#898989"/><path d="M150.031 424.398l6.918-13.577" stroke="#231815" stroke-width="1.8"/><path d="M141.422 418.388l6.19-10.722M132.426 413.172l6.743-10.383M123.715 407.492l7.277-10.016M115.313 401.365l7.791-9.622" stroke="#898989"/><path d="M106.288 395.867l10.196-11.325" stroke="#231815" stroke-width="1.8"/><path d="M99.528 387.833l8.754-8.754M92.188 380.466l9.2-8.284M85.244 372.726l9.621-7.792M78.714 364.633l10.016-7.278" stroke="#898989"/><path d="M71.419 356.986l12.78-8.3" stroke="#231815" stroke-width="1.8"/><path d="M66.969 347.477l10.722-6.19M61.786 338.461l11.031-5.62M57.082 329.187l11.31-5.036M52.869 319.68l11.56-4.438" stroke="#898989"/><path d="M47.802 310.406l14.492-4.709" stroke="#231815" stroke-width="1.8"/><path d="M45.965 300.068l11.959-3.204M43.291 290.019l12.11-2.575M41.148 279.843l12.229-1.937M39.54 269.569l12.313-1.294" stroke="#898989"/><path d="M37.045 259.3l15.217-.798" stroke="#231815" stroke-width="1.8"/><path d="M37.946 248.84h12.381M37.965 238.44l12.364.648M38.528 228.056l12.313 1.295M39.634 217.716l12.228 1.937" stroke="#898989"/><path d="M39.882 207.151l14.905 3.169" stroke="#231815" stroke-width="1.8"/><path d="M43.46 197.28l11.96 3.204M46.17 187.24l11.774 3.826M49.4 177.356l11.56 4.437M53.145 167.655l11.31 5.036" stroke="#898989"/><path d="M56.12 157.514l13.577 6.918" stroke="#231815" stroke-width="1.8"/><path d="M62.13 148.905l10.722 6.19M67.346 139.909l10.383 6.742M73.026 131.198l10.016 7.277M79.154 122.796l9.621 7.791" stroke="#898989"/><path d="M84.651 113.77l11.324 10.196" stroke="#231815" stroke-width="1.8"/><path d="M92.685 107.01l8.754 8.755M100.051 99.67l8.285 9.201M107.792 92.726l7.792 9.622M115.886 86.197l7.277 10.016" stroke="#898989"/><path d="M123.532 78.901l8.299 12.78" stroke="#231815" stroke-width="1.8"/><path d="M133.042 74.451l6.19 10.722M142.057 69.269l5.62 11.031M151.331 64.564l5.035 11.311M160.839 60.352l4.437 11.559" stroke="#898989"/><path d="M170.112 55.284l4.709 14.493" stroke="#231815" stroke-width="1.8"/><path d="M180.45 53.447l3.204 11.96M190.5 50.774l2.574 12.11M200.675 48.63l1.937 12.23M210.949 47.022l1.294 12.314M221.293 45.954l.649 12.364" stroke="#898989"/></g><text opacity=".164" transform="rotate(-30 430.634 128.366)" font-family="PingFangSC-Regular, PingFang SC" font-size="16" letter-spacing="-.311" fill="#FFF"><tspan x="417" y="133">父母</tspan></text><text opacity=".164" transform="translate(-1 -1)" font-family="PingFangSC-Regular, PingFang SC" font-size="16" letter-spacing="-.311" fill="#FFF"><tspan x="449" y="247">兄弟</tspan></text><text opacity=".164" transform="rotate(30 435.366 351.634)" font-family="PingFangSC-Regular, PingFang SC" font-size="16" letter-spacing="-.311" fill="#FFF"><tspan x="418" y="360">福德</tspan></text><text opacity=".164" transform="rotate(60 351.366 434.634)" font-family="PingFangSC-Regular, PingFang SC" font-size="16" letter-spacing="-.311" fill="#FFF"><tspan x="335" y="442">迁移</tspan></text><text opacity=".164" transform="rotate(90 239 464)" font-family="PingFangSC-Regular, PingFang SC" font-size="16" letter-spacing="-.311" fill="#FFF"><tspan x="223" y="471">夫妻</tspan></text><text opacity=".164" transform="rotate(120 125.789 436.211)" font-family="PingFangSC-Regular, PingFang SC" font-size="16" letter-spacing="-.311" fill="#FFF"><tspan x="110" y="443">田宅</tspan></text><text opacity=".164" transform="rotate(150 43.634 353.366)" font-family="PingFangSC-Regular, PingFang SC" font-size="16" letter-spacing="-.311" fill="#FFF"><tspan x="28" y="360">疾厄</tspan></text><text opacity=".164" transform="rotate(180 15.5 240.5)" font-family="PingFangSC-Regular, PingFang SC" font-size="16" letter-spacing="-.311" fill="#FFF"><tspan x="0" y="247">子女</tspan></text><text opacity=".164" transform="rotate(-150 43.366 126.634)" font-family="PingFangSC-Regular, PingFang SC" font-size="16" letter-spacing="-.311" fill="#FFF"><tspan x="28" y="133">财帛</tspan></text><text opacity=".164" transform="rotate(-120 125.211 43.789)" font-family="PingFangSC-Regular, PingFang SC" font-size="16" letter-spacing="-.311" fill="#FFF"><tspan x="110" y="50">奴仆</tspan></text><text opacity=".164" transform="rotate(-60 349.634 45.366)" font-family="PingFangSC-Regular, PingFang SC" font-size="16" letter-spacing="-.311" fill="#FFF"><tspan x="335" y="51">官禄</tspan></text><text opacity=".164" transform="rotate(-90 239 16)" font-family="PingFangSC-Regular, PingFang SC" font-size="16" letter-spacing="-.311" fill="#FFF"><tspan x="224" y="22">命宫</tspan></text><g opacity=".059" stroke="#FEFEFE"><path d="M255 243.5c0 9.113-7.387 16.5-16.5 16.5s-16.5-7.387-16.5-16.5 7.387-16.5 16.5-16.5 16.5 7.387 16.5 16.5z"/><path d="M269 243.5c0 16.846-13.656 30.5-30.501 30.5C221.656 274 208 260.346 208 243.5s13.656-30.5 30.499-30.5C255.344 213 269 226.654 269 243.5z"/><path d="M283 243c0 24.853-20.147 45-45.001 45C213.147 288 193 267.853 193 243s20.147-45 44.999-45C262.853 198 283 218.147 283 243z"/><path d="M300 243c0 34.242-27.759 62-62.001 62-34.24 0-61.999-27.758-61.999-62 0-34.242 27.759-62 61.999-62C272.24 181 300 208.758 300 243z"/><path d="M318 243.5c0 43.905-35.593 79.5-79.501 79.5C194.593 323 159 287.405 159 243.5c0-43.907 35.593-79.5 79.499-79.5C282.407 164 318 199.593 318 243.5z"/><path d="M339 243c0 55.78-45.218 101-101.001 101C182.219 344 137 298.78 137 243c0-55.782 45.218-101 100.999-101C293.782 142 339 187.218 339 243z"/><path d="M360 243c0 67.378-54.621 122-122 122-67.379 0-122-54.622-122-122s54.621-122 122-122c67.379 0 122 54.622 122 122z"/><path d="M386 243c0 81.74-66.262 148-148 148-81.737 0-148-66.26-148-148 0-81.738 66.263-148 148-148 81.738 0 148 66.262 148 148z"/></g></g></svg>