<!-- Generated by IcoMoon.io -->
<svg version="1.1" xmlns="http://www.w3.org/2000/svg" width="27" height="32" viewBox="0 0 27 32">
<title>Group8</title>
<path fill="#5e5e5e" d="M17.84 17.917h4.245v-12.427h-4.245z"></path>
<path fill="#000" d="M6.669 30.843v-30.508h19.254v30.508h-19.254zM7.399 30.109h17.794v-29.039h-17.794v29.039zM16.704 19.063v-14.715h6.518v14.715h-6.518zM17.433 18.329h5.059v-13.246h-5.059v13.246z"></path>
<path fill="#fff" d="M20.315 8.6c0.009 0.151 0.019 0.303 0.024 0.457 0.009 0.151 0.015 0.306 0.022 0.46h0.292c0.055-0.398-0.034-0.79 0.003-1.192h-0.411l-0.006 0.022c0.052 0.034 0.104 0.068 0.166 0.111l-0.089 0.142zM19.751 9.57l0.353-0.025-0.015-0.318-0.353 0.040 0.015 0.303zM20.085 8.798l-0.35 0.037-0.019 0.312c0.117-0.012 0.24-0.022 0.368-0.034v-0.315zM19.776 8.465c-0.025 0.034-0.049 0.062-0.071 0.090 0.006 0.040 0.009 0.074 0.012 0.117 0.126 0.031 0.246-0.034 0.368-0.012v-0.315c-0.119 0.003-0.23-0.006-0.347 0.022 0.015 0.046 0.028 0.071 0.037 0.099zM19.536 9.567v-1.173h-0.178l-0.111 0.037v1.136h0.288zM20.674 9.943l-0.024-0.253c-0.469 0.012-0.935 0.031-1.39 0.071-0.040 0.086-0.070 0.16-0.11 0.232-0.028 0.055-0.071 0.065-0.123 0.028 0.006-0.284 0.015-0.571 0.024-0.855 0.012-0.3-0.021-0.763-0.065-0.84l-0.132-0.074 0.255-0.139 0.175 0.105c-0.003 0.003-0.003 0.009-0.006 0.015l0.145-0.010c0.187-0.204 0.408-0.528 0.435-0.648-0.187 0.022-0.371 0.037-0.549 0.071-0.181 0.034-0.356 0.093-0.528 0.139l-0.080-0.318c0.101-0.003 0.206-0.009 0.31-0.015l0.491-0.025 0.948-0.065c0.058-0.003 0.116-0.003 0.175-0.015 0.033-0.006 0.070-0.028 0.101-0.049 0.043-0.031 0.080-0.068 0.128-0.111l0.322 0.29c0.006-0.003 0.012-0.006 0.015-0.012l0.028 0.12-0.070 0.099-0.236-0.090c-0.292-0.025-0.574-0.068-0.88-0.019l0.196 0.183c-0.031 0.028-0.049 0.049-0.071 0.068h-0.107l-0.405 0.352 0.077 0.034c0.304-0.049 0.596-0.025 0.914-0.058l0.184-0.201c0.119 0.012 0.172 0.127 0.273 0.204-0.012 0.047-0.012 0.114-0.043 0.158-0.086 0.114-0.086 0.241-0.080 0.377 0.012 0.235 0.015 0.469 0.019 0.704 0.003 0.071 0 0.142 0 0.213 0.003 0.185-0.065 0.287-0.246 0.37l-0.071-0.034z"></path>
<path fill="#fff" d="M20.294 12.688l0.73-0.046c0.009-0.028 0.024-0.056 0.024-0.087 0.009-0.234 0.018-0.466 0.022-0.701 0-0.173-0.009-0.346-0.015-0.519l-0.022-0.37-0.736 0.049-0.046 0.429h0.463c0.068-0.043 0.16-0.021 0.261-0.028v0.133c-0.239 0.006-0.473 0.010-0.7 0.050v0.513l0.715-0.062v0.127l-0.696 0.065v0.448zM19.947 10.762l0.221-0.117c0.061 0.080 0.123 0.154 0.193 0.238l0.632-0.040c0.080-0.071 0.153-0.142 0.239-0.216 0.068 0.077 0.145 0.148 0.181 0.244 0.013 0.034-0.006 0.096-0.034 0.12-0.067 0.068-0.074 0.148-0.071 0.229 0.007 0.34 0.019 0.676 0.031 1.012 0.006 0.189 0.009 0.38-0.040 0.565-0.031 0.117-0.111 0.198-0.212 0.263-0.053-0.053-0.092-0.105-0.071-0.182 0.009-0.037 0.003-0.074 0.003-0.12-0.246 0.022-0.482 0.040-0.718 0.059-0.028 0.117-0.055 0.216-0.157 0.278l-0.067-0.093c0.052-0.722-0.003-1.436 0.003-2.152-0.009 0-0.015-0.003-0.022-0.003l-0.113-0.083zM19.41 10.314c0.070 0.099 0.184 0.145 0.224 0.272l-0.101 0.198c-0.003 0.108-0.012 0.244-0.019 0.392l0.153 0.012 0.141-0.127c0.111 0.105 0.117 0.114 0.12 0.216-0.132 0.012-0.267 0.021-0.399 0.031-0.031 0.123-0.015 0.17 0.080 0.235l0.304 0.216 0.009 0.195-0.11 0.139-0.089-0.065c-0.071-0.334-0.077-0.389-0.193-0.494-0.006 0.062-0.019 0.115-0.015 0.17 0.015 0.222 0.040 0.448 0.049 0.673 0.009 0.16 0.003 0.324-0.012 0.485-0.006 0.062-0.049 0.126-0.092 0.179-0.034 0.046-0.080 0.031-0.111-0.003 0.043-0.46-0.006-0.911 0.012-1.361l-0.018-0.012c-0.019 0.015-0.046 0.022-0.055 0.040-0.104 0.188-0.255 0.34-0.39 0.5-0.098 0.114-0.212 0.213-0.338 0.296-0.012 0.006-0.027 0.006-0.039 0.009-0.007-0.003-0.009-0.009-0.016-0.015 0.022-0.022 0.040-0.050 0.062-0.071 0.086-0.083 0.178-0.161 0.263-0.247 0.037-0.037 0.071-0.083 0.099-0.13 0.061-0.102 0.119-0.207 0.172-0.312 0.037-0.071 0.064-0.151 0.095-0.225l0.067-0.176c-0.147-0.012-0.282 0.015-0.433 0.025l-0.027-0.095c0.027-0.056 0.067-0.056 0.116-0.056 0.138 0 0.279-0.006 0.417-0.009 0.055-0.231 0.003-0.454 0.012-0.673l-0.162-0.086 0.224-0.124z"></path>
<path fill="#fff" d="M19.677 14.488l0.279-0.018c-0.049-0.059-0.086-0.102-0.123-0.142-0.061 0.050-0.113 0.096-0.166 0.139l0.009 0.022zM19.778 14.97c0.074 0.046 0.135 0.086 0.212 0.13 0.055-0.074 0.108-0.142 0.172-0.222h-0.234c0.003 0.003 0.003 0.003 0.003 0.006-0.040 0.010-0.080 0.025-0.12 0.028-0.107 0.009-0.215 0.012-0.322 0.019l-0.208 0.021-0.077-0.133h0.405l0.061 0.046 0.022-0.055h0.516c0.043-0.062 0.080-0.117 0.126-0.179 0.052 0.062 0.098 0.12 0.144 0.173-0.003 0.068-0.033 0.105-0.086 0.133-0.065 0.034-0.123 0.077-0.187 0.114l-0.15 0.083v0.241l0.684-0.043 0.19-0.126c0.144 0.058 0.208 0.151 0.178 0.259h-1.034c-0.003 0.114-0.009 0.216-0.006 0.318 0.003 0.114-0.028 0.213-0.095 0.299-0.025 0.028-0.059 0.047-0.099 0.077-0.003 0.077-0.073 0.089-0.15 0.12-0.015-0.123-0.046-0.228-0.138-0.308 0.061-0.053 0.12 0 0.181-0.012l0.019-0.213c-0.024-0.028-0.043-0.053-0.062-0.077 0-0.003 0.003-0.006 0.007-0.009 0.018 0.012 0.033 0.025 0.061 0.040 0.009-0.108 0.018-0.207 0.031-0.309-0.006 0-0.013-0.003-0.015-0.003l-0.034 0.086-1.022 0.096-0.043-0.155c0.147-0.009 0.292-0.015 0.439-0.021l0.485-0.016c0.052 0 0.104-0.009 0.166-0.012l-0.019-0.395zM20.079 13.982l-0.16-0.21-0.261 0.275 0.193 0.12 0.114-0.225 0.092 0.080c0 0.090-0.068 0.142-0.114 0.207 0.074 0.055 0.132 0.123 0.129 0.235h0.341l0.031-0.216c-0.099 0.010-0.188 0.022-0.279 0.031l-0.031-0.117h0.319l0.031-0.235-0.239 0.034c-0.012-0.037-0.025-0.074-0.040-0.111l0.286-0.025c0.009-0.083 0.018-0.163 0.031-0.247l-0.328 0.034-0.052-0.114c0.040 0 0.064-0.006 0.089-0.003 0.061 0 0.123 0 0.184 0.006 0.098 0.015 0.178-0.012 0.245-0.087 0.015-0.015 0.034-0.028 0.065-0.052l0.132 0.157v0.080l-0.018-0.006c-0.025 0.049-0.058 0.099-0.071 0.151-0.034 0.16-0.058 0.324-0.089 0.488-0.015 0.077-0.037 0.158-0.058 0.244 0.135 0 0.276 0.012 0.384-0.13 0.089 0.093 0.178 0.176 0.254 0.265 0.022 0.025 0.009 0.077 0.012 0.114l-0.117 0.105-0.377-0.019c0.024-0.099 0.043-0.188 0.065-0.287-0.608 0.022-1.206 0.043-1.816 0.068 0.043 0.269-0.092 0.432-0.306 0.55-0.052-0.019-0.065-0.062-0.067-0.108 0.129-0.207 0.199-0.429 0.239-0.679l0.116 0.151c0.040-0.003 0.083-0.003 0.141-0.010-0.022-0.259-0.037-0.515-0.061-0.772-0.007-0.040-0.043-0.077-0.070-0.114-0.015-0.021-0.037-0.040-0.062-0.068l0.163-0.037c0.043 0.018 0.098 0.043 0.162 0.077l0.239-0.151c0.018 0.068 0.092 0.111 0.055 0.198l-0.276 0.028v0.244l0.261-0.031c0 0.031 0.003 0.055 0.006 0.086l-0.248 0.028v0.253l0.255-0.022 0.024 0.062-0.273 0.037v0.173h0.288c0.028-0.093 0.16-0.133 0.151-0.259l-0.141-0.195 0.212-0.333c-0.061-0.077-0.123-0.151-0.184-0.231 0.049-0.015 0.074 0.022 0.101 0.046l0.114 0.080 0.061-0.176c-0.025-0.018-0.052-0.043-0.095-0.080l0.212-0.034 0.111 0.145c-0.037 0.040-0.067 0.074-0.095 0.108-0.003 0-0.006-0.003-0.006-0.003-0.019 0.037-0.034 0.074-0.052 0.117l0.022 0.049c0.128 0.040 0.175 0.099 0.162 0.216l-0.101 0.043z"></path>
<path fill="#000" d="M4.116 30.109h-3.386v-29.039h3.386v5.479h-2.058v1.511h2.058v6.862h-2.058v1.511h2.058v6.686h-2.058v1.511h2.058v5.479zM2.864 24.188v-0.292h-0.076v-0.043h0.076v-0.224h1.982v-7.687h-2.058v-0.559h2.058v-7.817h-2.058v-0.559h2.058v-6.671h-4.846v30.508h4.846v-6.656h-1.982z"></path>
</svg>
