<!-- Generated by IcoMoon.io -->
<svg version="1.1" xmlns="http://www.w3.org/2000/svg" width="35" height="32" viewBox="0 0 35 32">
<title>rldw</title>
<path d="M17.423 19.789c-3.951 0-7.165-3.211-7.165-7.158s3.214-7.158 7.165-7.158c3.951 0 7.165 3.211 7.165 7.158s-3.214 7.158-7.165 7.158zM17.423 6.795c-3.221 0-5.842 2.619-5.842 5.837 0 3.219 2.621 5.837 5.842 5.837s5.842-2.617 5.842-5.837c0-3.217-2.621-5.837-5.842-5.837z"></path>
<path d="M25.818 26.341c-0.224-3.308-2.385-6.181-5.508-7.321l0.454-1.241c3.612 1.318 6.114 4.645 6.375 8.472l-1.321 0.089z"></path>
<path d="M9.027 26.379l-1.32-0.083c0.244-3.853 2.75-7.197 6.384-8.518l0.452 1.241c-3.141 1.141-5.305 4.031-5.516 7.36z"></path>
<path d="M1.676 9.129c-0.367 0-0.661-0.296-0.661-0.661v-7.113c0-0.365 0.295-0.661 0.661-0.661h6.925c0.365 0 0.661 0.296 0.661 0.661s-0.296 0.661-0.661 0.661h-6.263v6.453c0 0.365-0.296 0.661-0.661 0.661z"></path>
<path d="M33.17 9.129c-0.365 0-0.661-0.296-0.661-0.661v-6.453h-6.917c-0.365 0-0.661-0.295-0.661-0.661s0.297-0.661 0.661-0.661h7.578c0.365 0 0.661 0.296 0.661 0.661v7.113c0 0.365-0.296 0.661-0.661 0.661z"></path>
<path d="M8.6 31.777h-6.925c-0.367 0-0.661-0.295-0.661-0.661v-6.864c0-0.366 0.295-0.661 0.661-0.661 0.365 0 0.661 0.295 0.661 0.661v6.204h6.264c0.365 0 0.661 0.296 0.661 0.661 0 0.366-0.297 0.661-0.661 0.661z"></path>
<path d="M33.17 31.777h-7.578c-0.365 0-0.661-0.295-0.661-0.661 0-0.364 0.297-0.661 0.661-0.661h6.917v-6.204c0-0.366 0.296-0.661 0.661-0.661s0.661 0.295 0.661 0.661v6.864c0 0.366-0.296 0.661-0.661 0.661z"></path>
</svg>
