<?xml version="1.0" standalone="no"?><!DOCTYPE svg PUBLIC "-//W3C//DTD SVG 1.1//EN" "http://www.w3.org/Graphics/SVG/1.1/DTD/svg11.dtd"><svg class="icon" width="200px" height="200.00px" viewBox="0 0 1024 1024" version="1.1" xmlns="http://www.w3.org/2000/svg"><path fill="#333333" d="M138.5 261.4h749c22.4 0 40.5-18.1 40.5-40.5s-18.1-40.5-40.5-40.5h-749c-22.4 0-40.5 18.1-40.5 40.5s18.1 40.5 40.5 40.5zM887.5 470.4h-749c-22.4 0-40.5 18.1-40.5 40.5s18.1 40.5 40.5 40.5h749c22.4 0 40.5-18.1 40.5-40.5s-18.1-40.5-40.5-40.5zM887.5 760.4h-749c-22.4 0-40.5 18.1-40.5 40.5s18.1 40.5 40.5 40.5h749c22.4 0 40.5-18.1 40.5-40.5s-18.1-40.5-40.5-40.5z" /></svg>